<svg width="22" height="25" viewBox="0 0 22 25" fill="none" xmlns="http://www.w3.org/2000/svg">
<path d="M21.7879 15.6519L20.1437 12.8026C20.1117 12.7472 20.0658 12.7012 20.0104 12.6692C19.955 12.6372 19.8922 12.6203 19.8283 12.6203C19.7643 12.6203 19.7015 12.6372 19.6461 12.6692C19.5907 12.7012 19.5448 12.7472 19.5128 12.8026L17.8668 15.6519C17.8349 15.7072 17.8181 15.77 17.8181 15.8338C17.8181 15.8977 17.8349 15.9605 17.8668 16.0158C17.8988 16.0711 17.9447 16.1171 18 16.1491C18.0553 16.181 18.118 16.1979 18.1819 16.198H18.7819C18.4832 17.8303 16.9858 19.2221 14.6912 19.9705C14.3234 20.0868 13.925 20.0582 13.5776 19.8905C13.2302 19.7229 12.96 19.4288 12.8222 19.0685C12.4418 18.1452 12.2371 17.159 12.2186 16.1605V9.68154H16.9015C16.9493 9.68159 16.9967 9.67221 17.041 9.65393C17.0852 9.63565 17.1254 9.60883 17.1593 9.57501C17.1931 9.54118 17.22 9.50101 17.2383 9.45679C17.2567 9.41258 17.2661 9.36518 17.2661 9.31731V7.44417C17.2661 7.34757 17.2277 7.25493 17.1594 7.18663C17.0911 7.11832 16.9985 7.07995 16.9019 7.07995H12.219V4.05773C12.6047 3.78216 12.8928 3.39123 13.042 2.94131C13.1911 2.49139 13.1935 2.00573 13.0488 1.55437C12.9041 1.103 12.6198 0.709251 12.2369 0.429892C11.854 0.150533 11.3922 0 10.9182 0C10.4442 0 9.9825 0.150533 9.59958 0.429892C9.21666 0.709251 8.93236 1.103 8.78767 1.55437C8.64297 2.00573 8.64536 2.49139 8.79449 2.94131C8.94362 3.39123 9.23179 3.78216 9.61744 4.05773V7.07995H4.93458C4.83798 7.07995 4.74534 7.11832 4.67704 7.18663C4.60873 7.25493 4.57036 7.34757 4.57036 7.44417V9.31731C4.57036 9.41391 4.60873 9.50655 4.67704 9.57486C4.74534 9.64316 4.83798 9.68154 4.93458 9.68154H9.61744V16.1605C9.599 17.159 9.39431 18.1453 9.01387 19.0687C8.87589 19.4288 8.6057 19.7226 8.25845 19.8902C7.9112 20.0579 7.51306 20.0866 7.14531 19.9707C4.85071 19.2221 3.35323 17.8297 3.05457 16.198H3.6546C3.71852 16.198 3.78132 16.1811 3.83667 16.1492C3.89202 16.1172 3.93799 16.0712 3.96994 16.0158C4.00189 15.9605 4.01871 15.8977 4.01871 15.8337C4.0187 15.7698 4.00187 15.707 3.96991 15.6517L2.32383 12.8024C2.29191 12.747 2.24594 12.701 2.19057 12.669C2.1352 12.6369 2.07237 12.6201 2.00842 12.6201C1.94446 12.6201 1.88163 12.6369 1.82626 12.669C1.77089 12.701 1.72493 12.747 1.693 12.8024L0.0487965 15.6517C0.0168341 15.707 4.97537e-06 15.7698 1.10302e-09 15.8337C-4.97317e-06 15.8977 0.0168145 15.9605 0.0487683 16.0158C0.080722 16.0712 0.126685 16.1172 0.182038 16.1492C0.237391 16.1811 0.300184 16.198 0.364109 16.198H1.0553C1.42285 19.6086 4.80013 22.5894 9.09358 23.2429L10.6837 24.5811C10.7494 24.6364 10.8324 24.6667 10.9182 24.6667C11.0041 24.6667 11.0871 24.6364 11.1528 24.5811L12.7429 23.2429C17.0363 22.5894 20.4136 19.6086 20.7812 16.198H21.4724C21.5363 16.198 21.5991 16.1812 21.6544 16.1492C21.7098 16.1173 21.7557 16.0713 21.7877 16.016C21.8197 15.9606 21.8365 15.8979 21.8366 15.8339C21.8366 15.77 21.8198 15.7072 21.7879 15.6519ZM10.9182 0.732072C11.2167 0.732072 11.5084 0.820569 11.7565 0.986371C12.0047 1.15217 12.1981 1.38783 12.3123 1.66355C12.4265 1.93927 12.4564 2.24267 12.3982 2.53537C12.3399 2.82807 12.1962 3.09694 11.9852 3.30796C11.7742 3.51899 11.5053 3.6627 11.2126 3.72092C10.9199 3.77914 10.6165 3.74926 10.3408 3.63505C10.0651 3.52085 9.82941 3.32745 9.66361 3.0793C9.49781 2.83116 9.40931 2.53943 9.40931 2.24099C9.40975 1.84094 9.56887 1.45739 9.85175 1.17451C10.1346 0.891629 10.5182 0.732513 10.9182 0.732072ZM10.3459 4.40135C10.7205 4.50408 11.1159 4.50408 11.4906 4.40135V7.07995H10.3459V4.40135ZM5.2988 7.80839H16.5377V8.95309H5.2988V7.80839ZM20.4442 15.4695C20.3505 15.4695 20.2604 15.5055 20.1926 15.5702C20.1249 15.6348 20.0846 15.7231 20.0802 15.8167C19.9278 19.055 16.6844 21.9442 12.5356 22.5371C12.4682 22.5468 12.4049 22.5751 12.3529 22.6189L10.9182 23.8263L9.48361 22.6191C9.43156 22.5753 9.36824 22.547 9.30088 22.5373C5.15207 21.9444 1.90862 19.0552 1.75627 15.8169C1.75193 15.7233 1.71168 15.635 1.64389 15.5703C1.57609 15.5056 1.48597 15.4695 1.39226 15.4695H0.994734L2.00852 13.713L3.02335 15.4695H2.6431C2.59327 15.4695 2.54396 15.4797 2.49823 15.4995C2.45251 15.5194 2.41134 15.5483 2.37727 15.5847C2.3432 15.6211 2.31696 15.6641 2.30018 15.711C2.2834 15.7579 2.27643 15.8078 2.27971 15.8575C2.41687 17.9637 4.1514 19.7603 6.9197 20.6632C7.46414 20.8367 8.05432 20.7959 8.56963 20.5489C9.08494 20.3019 9.48647 19.8674 9.69216 19.3343C10.106 18.3264 10.3278 17.2499 10.3459 16.1605V9.68154H11.4906V16.1605C11.5087 17.2498 11.7303 18.3261 12.1441 19.3338C12.3497 19.8672 12.7512 20.3019 13.2667 20.5489C13.7821 20.796 14.3724 20.8369 14.917 20.6632C17.6851 19.7603 19.4196 17.9637 19.5568 15.8575C19.56 15.8078 19.5531 15.7579 19.5363 15.711C19.5195 15.6641 19.4933 15.6211 19.4592 15.5847C19.4251 15.5483 19.384 15.5194 19.3382 15.4995C19.2925 15.4797 19.2432 15.4695 19.1934 15.4695H18.8131L19.8279 13.713L20.8417 15.4695H20.4442Z" fill="#EA725B"/>
<path d="M11.6601 19.5255C11.6426 19.481 11.6165 19.4404 11.5834 19.406C11.5502 19.3715 11.5106 19.3439 11.4667 19.3248C11.3782 19.2862 11.278 19.2843 11.1881 19.3196C11.0982 19.3549 11.026 19.4244 10.9874 19.5129C10.9488 19.6014 10.9469 19.7016 10.9822 19.7915C11.125 20.1559 11.3282 20.4936 11.5833 20.7905C11.6462 20.8639 11.7356 20.9092 11.8319 20.9166C11.9283 20.924 12.0236 20.8928 12.0969 20.8299C12.1702 20.767 12.2156 20.6775 12.223 20.5812C12.2303 20.4849 12.1991 20.3895 12.1362 20.3162C11.9342 20.0813 11.7732 19.814 11.6601 19.5255Z" fill="#EA725B"/>
<path d="M10.9183 3.22965C11.1138 3.22965 11.305 3.17167 11.4675 3.06304C11.6301 2.95441 11.7568 2.80001 11.8316 2.61937C11.9065 2.43872 11.9261 2.23995 11.8879 2.04818C11.8498 1.85641 11.7556 1.68026 11.6173 1.542C11.4791 1.40374 11.3029 1.30958 11.1112 1.27144C10.9194 1.23329 10.7206 1.25287 10.54 1.32769C10.3593 1.40252 10.2049 1.52923 10.0963 1.69181C9.98767 1.85438 9.92969 2.04552 9.92969 2.24104C9.93002 2.50314 10.0343 2.7544 10.2196 2.93973C10.4049 3.12506 10.6562 3.22932 10.9183 3.22965ZM10.9183 1.98089C10.9697 1.98089 11.02 1.99614 11.0628 2.02473C11.1056 2.05332 11.139 2.09395 11.1586 2.14149C11.1783 2.18902 11.1835 2.24133 11.1735 2.2918C11.1634 2.34227 11.1386 2.38862 11.1023 2.42501C11.0659 2.46139 11.0195 2.48617 10.969 2.4962C10.9186 2.50624 10.8663 2.50109 10.8187 2.4814C10.7712 2.46171 10.7306 2.42836 10.702 2.38558C10.6734 2.3428 10.6581 2.2925 10.6581 2.24104C10.6582 2.17208 10.6857 2.10597 10.7345 2.05721C10.7832 2.00844 10.8493 1.981 10.9183 1.98089Z" fill="#EA725B"/>
</svg>
