<svg width="16" height="9" viewBox="0 0 16 9" fill="none" xmlns="http://www.w3.org/2000/svg">
<mask id="path-1-inside-1" fill="white">
<path d="M15.7419 6.51558H15.4839V4.93604C15.4835 4.72667 15.3746 4.52595 15.1811 4.3779C14.9876 4.22985 14.7253 4.14655 14.4516 4.14628V0.789767C14.4513 0.580392 14.3424 0.379671 14.1489 0.23162C13.9554 0.0835697 13.693 0.000274265 13.4194 0H2.58065C2.30698 0.000274265 2.04463 0.0835697 1.85112 0.23162C1.65762 0.379671 1.54875 0.580392 1.54839 0.789767V4.14628C1.27473 4.14655 1.01237 4.22985 0.818866 4.3779C0.625358 4.52595 0.516487 4.72667 0.516129 4.93604V6.51558H0.258065C0.189622 6.51558 0.123982 6.53638 0.0755853 6.57341C0.0271889 6.61044 0 6.66066 0 6.71302V7.50279C0 7.55515 0.0271889 7.60537 0.0755853 7.6424C0.123982 7.67943 0.189622 7.70023 0.258065 7.70023H0.516129V8.49C0.516129 8.54236 0.543318 8.59258 0.591714 8.62961C0.640111 8.66664 0.705751 8.68744 0.774194 8.68744H1.54839C1.60803 8.68746 1.66584 8.67165 1.71196 8.64272C1.75807 8.61378 1.78965 8.5735 1.80129 8.52874L2.01806 7.70023H13.9819L14.1987 8.52874C14.2104 8.5735 14.2419 8.61378 14.288 8.64272C14.3342 8.67165 14.392 8.68746 14.4516 8.68744H15.2258C15.2942 8.68744 15.3599 8.66664 15.4083 8.62961C15.4567 8.59258 15.4839 8.54236 15.4839 8.49V7.70023H15.7419C15.8104 7.70023 15.876 7.67943 15.9244 7.6424C15.9728 7.60537 16 7.55515 16 7.50279V6.71302C16 6.66066 15.9728 6.61044 15.9244 6.57341C15.876 6.53638 15.8104 6.51558 15.7419 6.51558ZM2.06452 0.789767C2.0647 0.68508 2.11913 0.584719 2.21588 0.510694C2.31264 0.436668 2.44381 0.395021 2.58065 0.394884H13.4194C13.5562 0.395021 13.6874 0.436668 13.7841 0.510694C13.8809 0.584719 13.9353 0.68508 13.9355 0.789767V4.14628H13.4194V3.35651C13.419 3.14714 13.3101 2.94641 13.1166 2.79836C12.9231 2.65031 12.6608 2.56702 12.3871 2.56674H9.29032C9.01666 2.56702 8.75431 2.65031 8.5608 2.79836C8.36729 2.94641 8.25842 3.14714 8.25806 3.35651V4.14628H7.74194V3.35651C7.74158 3.14714 7.63271 2.94641 7.4392 2.79836C7.24569 2.65031 6.98334 2.56702 6.70968 2.56674H3.6129C3.33924 2.56702 3.07689 2.65031 2.88338 2.79836C2.68987 2.94641 2.581 3.14714 2.58065 3.35651V4.14628H2.06452V0.789767ZM12.9032 3.35651V4.14628H8.77419V3.35651C8.77437 3.25182 8.82881 3.15146 8.92556 3.07744C9.02232 3.00341 9.15349 2.96176 9.29032 2.96163H12.3871C12.5239 2.96176 12.6551 3.00341 12.7519 3.07744C12.8486 3.15146 12.903 3.25182 12.9032 3.35651ZM7.22581 3.35651V4.14628H3.09677V3.35651C3.09695 3.25182 3.15139 3.15146 3.24814 3.07744C3.3449 3.00341 3.47607 2.96176 3.6129 2.96163H6.70968C6.84651 2.96176 6.97768 3.00341 7.07444 3.07744C7.17119 3.15146 7.22563 3.25182 7.22581 3.35651ZM1.03226 4.93604C1.03244 4.83136 1.08687 4.731 1.18363 4.65697C1.28038 4.58295 1.41156 4.5413 1.54839 4.54116H14.4516C14.5884 4.5413 14.7196 4.58295 14.8164 4.65697C14.9131 4.731 14.9676 4.83136 14.9677 4.93604V6.51558H1.03226V4.93604ZM1.33677 8.29255H1.03226V7.70023H1.49161L1.33677 8.29255ZM14.9677 8.29255H14.6632L14.5084 7.70023H14.9677V8.29255ZM15.4839 7.30535H0.516129V6.91046H15.4839V7.30535Z"/>
</mask>
<path d="M15.7419 6.51558H15.4839V4.93604C15.4835 4.72667 15.3746 4.52595 15.1811 4.3779C14.9876 4.22985 14.7253 4.14655 14.4516 4.14628V0.789767C14.4513 0.580392 14.3424 0.379671 14.1489 0.23162C13.9554 0.0835697 13.693 0.000274265 13.4194 0H2.58065C2.30698 0.000274265 2.04463 0.0835697 1.85112 0.23162C1.65762 0.379671 1.54875 0.580392 1.54839 0.789767V4.14628C1.27473 4.14655 1.01237 4.22985 0.818866 4.3779C0.625358 4.52595 0.516487 4.72667 0.516129 4.93604V6.51558H0.258065C0.189622 6.51558 0.123982 6.53638 0.0755853 6.57341C0.0271889 6.61044 0 6.66066 0 6.71302V7.50279C0 7.55515 0.0271889 7.60537 0.0755853 7.6424C0.123982 7.67943 0.189622 7.70023 0.258065 7.70023H0.516129V8.49C0.516129 8.54236 0.543318 8.59258 0.591714 8.62961C0.640111 8.66664 0.705751 8.68744 0.774194 8.68744H1.54839C1.60803 8.68746 1.66584 8.67165 1.71196 8.64272C1.75807 8.61378 1.78965 8.5735 1.80129 8.52874L2.01806 7.70023H13.9819L14.1987 8.52874C14.2104 8.5735 14.2419 8.61378 14.288 8.64272C14.3342 8.67165 14.392 8.68746 14.4516 8.68744H15.2258C15.2942 8.68744 15.3599 8.66664 15.4083 8.62961C15.4567 8.59258 15.4839 8.54236 15.4839 8.49V7.70023H15.7419C15.8104 7.70023 15.876 7.67943 15.9244 7.6424C15.9728 7.60537 16 7.55515 16 7.50279V6.71302C16 6.66066 15.9728 6.61044 15.9244 6.57341C15.876 6.53638 15.8104 6.51558 15.7419 6.51558ZM2.06452 0.789767C2.0647 0.68508 2.11913 0.584719 2.21588 0.510694C2.31264 0.436668 2.44381 0.395021 2.58065 0.394884H13.4194C13.5562 0.395021 13.6874 0.436668 13.7841 0.510694C13.8809 0.584719 13.9353 0.68508 13.9355 0.789767V4.14628H13.4194V3.35651C13.419 3.14714 13.3101 2.94641 13.1166 2.79836C12.9231 2.65031 12.6608 2.56702 12.3871 2.56674H9.29032C9.01666 2.56702 8.75431 2.65031 8.5608 2.79836C8.36729 2.94641 8.25842 3.14714 8.25806 3.35651V4.14628H7.74194V3.35651C7.74158 3.14714 7.63271 2.94641 7.4392 2.79836C7.24569 2.65031 6.98334 2.56702 6.70968 2.56674H3.6129C3.33924 2.56702 3.07689 2.65031 2.88338 2.79836C2.68987 2.94641 2.581 3.14714 2.58065 3.35651V4.14628H2.06452V0.789767ZM12.9032 3.35651V4.14628H8.77419V3.35651C8.77437 3.25182 8.82881 3.15146 8.92556 3.07744C9.02232 3.00341 9.15349 2.96176 9.29032 2.96163H12.3871C12.5239 2.96176 12.6551 3.00341 12.7519 3.07744C12.8486 3.15146 12.903 3.25182 12.9032 3.35651ZM7.22581 3.35651V4.14628H3.09677V3.35651C3.09695 3.25182 3.15139 3.15146 3.24814 3.07744C3.3449 3.00341 3.47607 2.96176 3.6129 2.96163H6.70968C6.84651 2.96176 6.97768 3.00341 7.07444 3.07744C7.17119 3.15146 7.22563 3.25182 7.22581 3.35651ZM1.03226 4.93604C1.03244 4.83136 1.08687 4.731 1.18363 4.65697C1.28038 4.58295 1.41156 4.5413 1.54839 4.54116H14.4516C14.5884 4.5413 14.7196 4.58295 14.8164 4.65697C14.9131 4.731 14.9676 4.83136 14.9677 4.93604V6.51558H1.03226V4.93604ZM1.33677 8.29255H1.03226V7.70023H1.49161L1.33677 8.29255ZM14.9677 8.29255H14.6632L14.5084 7.70023H14.9677V8.29255ZM15.4839 7.30535H0.516129V6.91046H15.4839V7.30535Z" stroke="#535353" stroke-width="6" mask="url(#path-1-inside-1)"/>
</svg>
