<svg width="25" height="25" viewBox="0 0 25 25" fill="none" xmlns="http://www.w3.org/2000/svg">
<path d="M10.4183 1.50909H14.5965V2.21214H16.1054V1.41068C16.1056 0.632858 15.4731 0 14.6957 0H10.3191C9.54166 0 8.90918 0.632858 8.90918 1.41068V2.21214H10.4183V1.50909Z" fill="#EA725B"/>
<path d="M19.5899 8.19092H5.42439C5.03625 8.19092 4.73069 8.52203 4.76197 8.90903L5.94624 23.5529C6.01224 24.3704 6.69411 25 7.51332 25H17.5008C18.32 25 19.0019 24.3704 19.0678 23.5527L20.2521 8.90903C20.2836 8.52203 19.978 8.19092 19.5899 8.19092ZM8.85438 23.4381C8.83855 23.439 8.82272 23.4396 8.80708 23.4396C8.41149 23.4396 8.07942 23.1316 8.05482 22.7314L7.31267 10.7096C7.28711 10.2936 7.60354 9.93557 8.01934 9.91001C8.43381 9.88483 8.79334 10.2005 8.8189 10.6167L9.56086 22.6385C9.58661 23.0545 9.27018 23.4123 8.85438 23.4381ZM13.2701 22.6851C13.2701 23.1016 12.9323 23.4394 12.5155 23.4394C12.0988 23.4394 11.761 23.1016 11.761 22.6851V10.663C11.761 10.2463 12.0988 9.90849 12.5155 9.90849C12.9321 9.90849 13.2701 10.2463 13.2701 10.663V22.6851ZM17.7016 10.7075L16.993 22.7293C16.9696 23.1302 16.6369 23.4394 16.2406 23.4394C16.2257 23.4394 16.2106 23.439 16.1956 23.4383C15.7796 23.4137 15.4622 23.0566 15.4868 22.6406L16.1952 10.6186C16.2196 10.2026 16.5755 9.88522 16.9927 9.90982C17.4086 9.93423 17.726 10.2915 17.7016 10.7075Z" fill="#EA725B"/>
<path d="M22.1996 5.86238L21.7041 4.37694C21.5734 3.98536 21.2068 3.72119 20.7939 3.72119H4.22113C3.80838 3.72119 3.44159 3.98536 3.31113 4.37694L2.8156 5.86238C2.72004 6.14886 2.8444 6.44107 3.07653 6.58679C3.17113 6.64611 3.28309 6.68178 3.40612 6.68178H21.6091C21.7321 6.68178 21.8443 6.64611 21.9387 6.5866C22.1708 6.44088 22.2952 6.14867 22.1996 5.86238Z" fill="#EA725B"/>
</svg>
