<svg width="60" height="28" viewBox="0 0 60 28" fill="none" xmlns="http://www.w3.org/2000/svg">
<path d="M41.4639 5.23835H36.1909C35.8121 5.23835 35.4487 5.08784 35.1808 4.81993C34.9129 4.55202 34.7624 4.18866 34.7624 3.80978C34.7624 3.4309 34.9129 3.06754 35.1808 2.79963C35.4487 2.53172 35.8121 2.38121 36.1909 2.38121H39.3859L38.7749 1.54097C38.6423 1.35874 38.4686 1.21044 38.2678 1.10819C38.067 1.00594 37.8448 0.952634 37.6195 0.952637H30.0005C29.7072 0.952658 29.4211 1.04292 29.1809 1.21118C28.9407 1.37943 28.7582 1.61751 28.658 1.89311L27.0957 6.19073H42.1565L41.4639 5.23835Z" fill="#848484"/>
<path d="M45.8647 14.1113C46.2615 13.9133 46.6988 13.8101 47.1423 13.8096H51.6654L48.3677 8.31271C48.2408 8.10111 48.0612 7.926 47.8464 7.80445C47.6316 7.6829 47.389 7.61906 47.1423 7.61914H9.04703C8.76152 7.61913 8.48255 7.70467 8.24612 7.86473C8.0097 8.02479 7.82665 8.25203 7.72061 8.51712L4.8418 15.7144H42.6582L45.8647 14.1113ZM13.8089 12.8572H12.1423C11.7634 12.8572 11.4 12.7067 11.1321 12.4388C10.8642 12.1709 10.7137 11.8075 10.7137 11.4287C10.7137 11.0498 10.8642 10.6864 11.1321 10.4185C11.4 10.1506 11.7634 10.0001 12.1423 10.0001H13.8089C14.1878 10.0001 14.5512 10.1506 14.8191 10.4185C15.087 10.6864 15.2375 11.0498 15.2375 11.4287C15.2375 11.8075 15.087 12.1709 14.8191 12.4388C14.5512 12.7067 14.1878 12.8572 13.8089 12.8572ZM21.3089 12.8572H19.4042C19.0253 12.8572 18.6619 12.7067 18.394 12.4388C18.1261 12.1709 17.9756 11.8075 17.9756 11.4287C17.9756 11.0498 18.1261 10.6864 18.394 10.4185C18.6619 10.1506 19.0253 10.0001 19.4042 10.0001H21.3089C21.6878 10.0001 22.0512 10.1506 22.3191 10.4185C22.587 10.6864 22.7375 11.0498 22.7375 11.4287C22.7375 11.8075 22.587 12.1709 22.3191 12.4388C22.0512 12.7067 21.6878 12.8572 21.3089 12.8572ZM29.2851 12.8572H27.0232C26.6443 12.8572 26.281 12.7067 26.0131 12.4388C25.7452 12.1709 25.5947 11.8075 25.5947 11.4287C25.5947 11.0498 25.7452 10.6864 26.0131 10.4185C26.281 10.1506 26.6443 10.0001 27.0232 10.0001H29.2851C29.664 10.0001 30.0274 10.1506 30.2953 10.4185C30.5632 10.6864 30.7137 11.0498 30.7137 11.4287C30.7137 11.8075 30.5632 12.1709 30.2953 12.4388C30.0274 12.7067 29.664 12.8572 29.2851 12.8572ZM36.6661 12.8572H34.7613C34.3824 12.8572 34.0191 12.7067 33.7512 12.4388C33.4833 12.1709 33.3327 11.8075 33.3327 11.4287C33.3327 11.0498 33.4833 10.6864 33.7512 10.4185C34.0191 10.1506 34.3824 10.0001 34.7613 10.0001H36.6661C37.045 10.0001 37.4083 10.1506 37.6762 10.4185C37.9441 10.6864 38.0947 11.0498 38.0947 11.4287C38.0947 11.8075 37.9441 12.1709 37.6762 12.4388C37.4083 12.7067 37.045 12.8572 36.6661 12.8572ZM40.9518 11.4287C40.9518 11.0498 41.1023 10.6864 41.3702 10.4185C41.6381 10.1506 42.0015 10.0001 42.3804 10.0001H44.6423C45.0212 10.0001 45.3845 10.1506 45.6524 10.4185C45.9203 10.6864 46.0708 11.0498 46.0708 11.4287C46.0708 11.8075 45.9203 12.1709 45.6524 12.4388C45.3845 12.7067 45.0212 12.8572 44.6423 12.8572H42.3804C42.0015 12.8572 41.6381 12.7067 41.3702 12.4388C41.1023 12.1709 40.9518 11.8075 40.9518 11.4287Z" fill="#848484"/>
<path d="M59.933 16.2346C59.8412 15.9455 59.6598 15.6931 59.415 15.514C59.1702 15.3349 58.8748 15.2383 58.5714 15.2383H47.1429C46.9211 15.2383 46.7024 15.2899 46.5041 15.3891L42.9961 17.143H1.42858C1.18507 17.143 0.945594 17.2053 0.732903 17.3239C0.520211 17.4425 0.341364 17.6134 0.213344 17.8206C0.0853237 18.0277 0.0123808 18.2642 0.00144221 18.5074C-0.00949642 18.7507 0.0419323 18.9927 0.150845 19.2105L3.96037 26.8296C4.07902 27.0669 4.2614 27.2664 4.48708 27.4059C4.71276 27.5454 4.97281 27.6192 5.23811 27.6192H48.5714C48.8367 27.6192 49.0968 27.5454 49.3225 27.4059C49.5481 27.2664 49.7305 27.0669 49.8492 26.8296C51.2777 23.9716 57.2248 19.367 59.3955 17.8339C59.6433 17.6589 59.8289 17.4096 59.9256 17.1221C60.0222 16.8345 60.0248 16.5237 59.933 16.2346Z" fill="#848484"/>
<path d="M20.0007 4.28564H13.334V6.19041H20.0007V4.28564Z" fill="#848484"/>
<path d="M20.0007 1.42857C20.0007 1.04969 19.8501 0.686329 19.5822 0.41842C19.3143 0.15051 18.951 0 18.5721 0H14.7626C14.3837 0 14.0203 0.15051 13.7524 0.41842C13.4845 0.686329 13.334 1.04969 13.334 1.42857V2.38095H20.0007V1.42857Z" fill="#848484"/>
</svg>
