<svg width="23" height="20" viewBox="0 0 23 20" fill="none" xmlns="http://www.w3.org/2000/svg">
<path d="M21.0494 9.01944V3.93038C21.0494 1.76317 19.2862 0 17.119 0H12.9921C12.7509 0 12.5554 0.195515 12.5554 0.436709C12.5554 0.677904 12.7509 0.873418 12.9921 0.873418H17.119C18.8046 0.873418 20.176 2.24477 20.176 3.93038V8.55972C19.847 8.44661 19.4947 8.38429 19.1279 8.38429H19.0405V5.88051C19.0405 4.9494 18.283 4.19188 17.3519 4.19188H12.4317C11.9357 4.19188 11.489 4.40692 11.1798 4.74856C10.8705 4.40692 10.4239 4.19188 9.92784 4.19188H5.00761C4.07651 4.19188 3.31899 4.9494 3.31899 5.88046V8.38425H3.23165C2.86481 8.38425 2.51248 8.44657 2.18355 8.55967V3.93038C2.18355 2.24477 3.5549 0.873418 5.24051 0.873418H9.45475C9.69595 0.873418 9.89146 0.677904 9.89146 0.436709C9.89146 0.195515 9.69595 0 9.45475 0H5.24051C3.0733 0 1.31013 1.76317 1.31013 3.93038V9.01949C0.515841 9.60882 0 10.5532 0 11.616V17.2059C0 17.4471 0.195515 17.6426 0.436709 17.6426H1.31013V19.5641C1.31013 19.8053 1.50564 20.0008 1.74684 20.0008H4.10559C4.34679 20.0008 4.5423 19.8053 4.5423 19.5641V17.6426H17.8172V19.5641C17.8172 19.8053 18.0127 20.0008 18.2539 20.0008H20.6127C20.8539 20.0008 21.0494 19.8053 21.0494 19.5641V17.6426H21.9228C22.164 17.6426 22.3595 17.4471 22.3595 17.2059V11.616C22.3595 10.5532 21.8437 9.60878 21.0494 9.01944ZM11.6165 5.88046C11.6165 5.43096 11.9822 5.06526 12.4317 5.06526H17.3519C17.8014 5.06526 18.1671 5.43096 18.1671 5.88046V8.38425H11.6165V5.88046ZM4.19241 5.88046C4.19241 5.43096 4.55811 5.06526 5.00761 5.06526H9.92789C10.3774 5.06526 10.7431 5.43096 10.7431 5.88046V8.38425H4.19241V5.88046ZM3.66888 19.1273H2.18355V17.6425H3.66888V19.1273ZM20.176 19.1273H18.6906V17.6425H20.176V19.1273ZM21.4861 14.6729H4.01427C3.77308 14.6729 3.57757 14.8684 3.57757 15.1096C3.57757 15.3508 3.77308 15.5463 4.01427 15.5463H21.4861V16.7691H20.6232C20.6197 16.769 20.6163 16.7686 20.6127 16.7686H18.2539C18.2503 16.7686 18.2469 16.769 18.2434 16.7691H4.11616C4.11262 16.769 4.10917 16.7686 4.10559 16.7686H1.74684C1.74326 16.7686 1.73981 16.769 1.73627 16.7691H0.873418V11.6159C0.873418 10.3156 1.9313 9.25771 3.23165 9.25771H3.7557H11.1798H18.6038H19.1279C20.4282 9.25771 21.4861 10.3156 21.4861 11.6159V14.6729Z" fill="#EA725B"/>
<path d="M11.4886 0.127956C11.4074 0.0467279 11.2947 0 11.1799 0C11.065 0 10.9523 0.0467279 10.8711 0.127956C10.7899 0.209184 10.7432 0.321855 10.7432 0.436709C10.7432 0.551564 10.7899 0.664235 10.8711 0.745463C10.9523 0.826691 11.065 0.873419 11.1799 0.873419C11.2947 0.873419 11.4074 0.826691 11.4886 0.745463C11.5699 0.664235 11.6166 0.552001 11.6166 0.436709C11.6166 0.321855 11.5699 0.20914 11.4886 0.127956Z" fill="#EA725B"/>
<path d="M2.58335 14.8008C2.50213 14.7196 2.38945 14.6729 2.2746 14.6729C2.15931 14.6729 2.04707 14.7196 1.96585 14.8008C1.88462 14.882 1.83789 14.9947 1.83789 15.1096C1.83789 15.2244 1.88462 15.3371 1.96585 15.4183C2.04707 15.4995 2.15975 15.5463 2.2746 15.5463C2.38945 15.5463 2.50213 15.4995 2.58335 15.4183C2.66458 15.3371 2.71131 15.2244 2.71131 15.1096C2.71131 14.9947 2.66458 14.882 2.58335 14.8008Z" fill="#EA725B"/>
</svg>
