<svg width="22" height="25" viewBox="0 0 22 25" fill="none" xmlns="http://www.w3.org/2000/svg">
<g clip-path="url(#clip0)">
<path d="M20.5371 12.8239C20.4486 12.6181 20.4486 12.382 20.5371 12.1763L21.3576 10.2688C21.8145 9.20677 21.4525 7.94091 20.5336 7.38686L18.8832 6.39175C18.7051 6.28443 18.583 6.09341 18.5482 5.86788L18.2254 3.77663C18.0457 2.61228 17.0979 1.82987 16.068 1.99544L14.2181 2.2928C14.0184 2.32483 13.821 2.25188 13.6761 2.09266L12.3333 0.616494C11.5856 -0.205474 10.4143 -0.205522 9.66667 0.616494L8.32382 2.0928C8.17893 2.25208 7.98148 2.32488 7.78185 2.29295L5.93193 1.99559C4.90176 1.82991 3.95431 2.61243 3.77457 3.77678L3.45179 5.86793C3.41694 6.09351 3.29487 6.28448 3.11685 6.39185L1.46643 7.38696C0.547506 7.94096 0.185539 9.20692 0.64238 10.269L1.46286 12.1764C1.55138 12.3822 1.55138 12.6182 1.46286 12.824L0.642337 14.7314C0.185496 15.7935 0.547463 17.0593 1.46639 17.6134L3.11681 18.6085C3.29487 18.7158 3.41694 18.9068 3.45179 19.1323L3.77457 21.2236C3.93819 22.2836 4.73801 23.0269 5.65723 23.0268C5.74777 23.0268 5.83963 23.0196 5.93197 23.0047L7.7819 22.7074C7.9814 22.6752 8.17897 22.7483 8.32386 22.9075L9.66667 24.3837C10.0406 24.7947 10.5202 25.0002 11 25.0001C11.4796 25.0001 11.9596 24.7946 12.3333 24.3837L13.6761 22.9075C13.821 22.7483 14.0185 22.6755 14.2181 22.7074L16.068 23.0047C17.0983 23.1704 18.0457 22.3879 18.2254 21.2235L18.5482 19.1324C18.5831 18.9068 18.7051 18.7158 18.8832 18.6085L20.5336 17.6134C21.4525 17.0594 21.8145 15.7934 21.3576 14.7313L20.5371 12.8239ZM8.46222 6.01158C9.74491 6.01158 10.7885 7.19746 10.7885 8.65507C10.7885 10.1127 9.74491 11.2986 8.46222 11.2986C7.17952 11.2986 6.13595 10.1127 6.13595 8.65507C6.13595 7.19746 7.17952 6.01158 8.46222 6.01158ZM7.2615 17.7679C7.13763 17.9086 6.97525 17.979 6.81291 17.979C6.65058 17.979 6.48816 17.9087 6.36432 17.7679C6.11657 17.4863 6.11657 17.0298 6.36432 16.7483L14.7384 7.23227C14.9861 6.95073 15.3879 6.95073 15.6356 7.23227C15.8834 7.51382 15.8834 7.97031 15.6356 8.25185L7.2615 17.7679ZM13.5377 18.9886C12.255 18.9886 11.2114 17.8028 11.2114 16.3452C11.2114 14.8875 12.255 13.7017 13.5377 13.7017C14.8204 13.7017 15.8639 14.8875 15.8639 16.3452C15.8639 17.8028 14.8204 18.9886 13.5377 18.9886Z" fill="#616161"/>
<path d="M13.5376 15.1431C12.9546 15.1431 12.4802 15.6821 12.4802 16.3446C12.4802 17.0072 12.9546 17.5462 13.5376 17.5462C14.1207 17.5462 14.595 17.0072 14.595 16.3446C14.595 15.6821 14.1207 15.1431 13.5376 15.1431Z" fill="#616161"/>
<path d="M8.46215 7.45361C7.87911 7.45361 7.40479 7.99262 7.40479 8.65517C7.40479 9.31771 7.87911 9.85677 8.46215 9.85677C9.04519 9.85677 9.51957 9.31776 9.51957 8.65517C9.51952 7.99267 9.04519 7.45361 8.46215 7.45361Z" fill="#616161"/>
</g>
<defs>
<clipPath id="clip0">
<rect width="22" height="25" fill="white"/>
</clipPath>
</defs>
</svg>
