<svg width="16" height="16" viewBox="0 0 16 16" fill="none" xmlns="http://www.w3.org/2000/svg">
<path d="M11.3306 5.39257L11.1594 4.8291C10.9419 4.18903 10.2468 3.84647 9.60669 4.06393C9.24662 4.18627 8.96385 4.46903 8.84152 4.8291L8.67032 5.39257C8.52625 5.86777 8.49602 6.3702 8.58205 6.85923C8.66052 7.27097 8.92192 7.6247 9.29245 7.82057L9.10072 12.1067C9.07505 12.3459 9.15265 12.5848 9.31405 12.7632C9.66115 13.1429 10.2504 13.1693 10.63 12.8222C10.6506 12.8034 10.6702 12.7838 10.689 12.7632C10.8468 12.5898 10.9243 12.358 10.9023 12.1246L10.7095 7.82003C11.0796 7.62407 11.3405 7.27057 11.4189 6.85923C11.5049 6.3702 11.4747 5.86777 11.3306 5.39257ZM10.8935 6.76643C10.8358 7.06223 10.625 7.30493 10.3402 7.4035C10.2321 7.44413 10.1625 7.54973 10.1677 7.6651L10.3703 12.1667C10.3797 12.255 10.3505 12.343 10.2903 12.4083C10.1298 12.5673 9.87115 12.5673 9.71058 12.4083C9.64738 12.3378 9.61869 12.2428 9.63219 12.1491L9.83325 7.6651C9.83845 7.54973 9.76882 7.44413 9.66072 7.4035C9.37592 7.30493 9.16512 7.06223 9.10738 6.76643C9.03605 6.36043 9.06118 5.94333 9.18072 5.54883L9.35192 4.9851C9.48439 4.62693 9.88212 4.44397 10.2403 4.57643C10.4297 4.64647 10.579 4.79577 10.649 4.9851L10.8202 5.54883C10.9396 5.94337 10.9647 6.36043 10.8935 6.76643Z" fill="#3A3A3A"/>
<path d="M7.19987 4C7.0526 4 6.9332 4.1194 6.9332 4.26667V6.55627L6.21134 7.27813C6.15794 7.33133 6.12954 7.4047 6.1332 7.48L6.36654 12.1467C6.3721 12.2473 6.33557 12.3457 6.26574 12.4184C6.11977 12.5657 5.88204 12.5667 5.73474 12.4207C5.73394 12.42 5.73317 12.4192 5.7324 12.4184C5.66254 12.3457 5.62604 12.2473 5.6316 12.1467L5.86654 7.48C5.87027 7.40473 5.84197 7.3314 5.78867 7.27813L5.06654 6.55627V4.26667C5.06654 4.1194 4.94714 4 4.79987 4C4.6526 4 4.5332 4.1194 4.5332 4.26667V6.66667C4.5332 6.7374 4.56134 6.8052 4.61134 6.8552L5.3276 7.57173L5.10014 12.1208C5.07594 12.6177 5.45914 13.0402 5.95604 13.0644C6.45294 13.0886 6.8754 12.7054 6.8996 12.2085C6.90104 12.1793 6.90104 12.15 6.8996 12.1208L6.67214 7.57177L7.3884 6.85523C7.4384 6.80523 7.46654 6.73743 7.46654 6.6667V4.2667C7.46654 4.1194 7.34714 4 7.19987 4Z" fill="#3A3A3A"/>
<path d="M5.59967 4C5.45241 4 5.33301 4.1194 5.33301 4.26667V6.4C5.33301 6.54727 5.45241 6.66667 5.59967 6.66667C5.74694 6.66667 5.86634 6.54727 5.86634 6.4V4.26667C5.86634 4.1194 5.74694 4 5.59967 4Z" fill="#3A3A3A"/>
<path d="M6.39948 4C6.25221 4 6.13281 4.1194 6.13281 4.26667V6.4C6.13281 6.54727 6.25221 6.66667 6.39948 6.66667C6.54675 6.66667 6.66615 6.54727 6.66615 6.4V4.26667C6.66615 4.1194 6.54675 4 6.39948 4Z" fill="#3A3A3A"/>
<path d="M8 0C3.58173 0 0 3.58173 0 8C0 12.4183 3.58173 16 8 16C12.4183 16 16 12.4183 16 8C15.995 3.5838 12.4162 0.005 8 0ZM8 15.4667C3.87627 15.4667 0.533333 12.1237 0.533333 8C0.533333 3.87627 3.87627 0.533333 8 0.533333C12.1237 0.533333 15.4667 3.87627 15.4667 8C15.462 12.1218 12.1218 15.462 8 15.4667Z" fill="#3A3A3A"/>
<path d="M8.86526 13.0059C8.85096 12.8593 8.72053 12.7521 8.57393 12.7664C8.5705 12.7667 8.56706 12.7671 8.56363 12.7676L8.5647 12.7673C8.18926 12.8109 7.81 12.8109 7.43456 12.7673C7.28823 12.7502 7.15573 12.8549 7.13856 13.0012C7.12139 13.1475 7.22609 13.28 7.37243 13.2972C7.7888 13.3458 8.20939 13.3458 8.62576 13.2972C8.77233 13.2829 8.87956 13.1525 8.86526 13.0059Z" fill="#3A3A3A"/>
<path d="M12.0797 4.56406C11.9851 4.45122 11.8169 4.43645 11.7041 4.53112C11.7037 4.53142 11.7033 4.53175 11.7029 4.53205C11.5904 4.62699 11.576 4.79519 11.6709 4.90779C13.2788 6.81645 13.1558 9.63875 11.388 11.4003C11.2837 11.5043 11.2834 11.6732 11.3873 11.7775C11.4913 11.8819 11.6602 11.8822 11.7645 11.7782C13.7291 9.82109 13.8661 6.68502 12.0797 4.56406Z" fill="#3A3A3A"/>
<path d="M9.2581 2.81565C8.21593 2.56589 7.12293 2.63302 6.11916 3.00845C5.98129 3.06029 5.91159 3.21409 5.96343 3.35192C6.00249 3.45582 6.10183 3.52458 6.21279 3.52468C6.24469 3.52452 6.27629 3.51868 6.30609 3.50738C7.21003 3.16935 8.1943 3.10899 9.13276 3.33405C9.27593 3.36865 9.42003 3.28069 9.45463 3.13752C9.48923 2.99435 9.40126 2.85025 9.2581 2.81565Z" fill="#3A3A3A"/>
<path d="M4.59946 11.3866C3.70049 10.4891 3.19666 9.27017 3.19972 7.9999C3.19709 6.98504 3.51856 5.99584 4.11732 5.17644C4.20582 5.0587 4.18212 4.89154 4.06439 4.80304C3.94666 4.71454 3.77949 4.73824 3.69099 4.85597C3.68942 4.85807 3.68789 4.86017 3.68639 4.8623C2.14463 6.9819 2.37149 9.9076 4.22159 11.7642C4.32586 11.8685 4.49499 11.8686 4.59932 11.7643C4.70366 11.66 4.70372 11.4909 4.59946 11.3866Z" fill="#3A3A3A"/>
</svg>
