<svg width="16" height="16" viewBox="0 0 16 16" fill="none" xmlns="http://www.w3.org/2000/svg">
<path d="M10.9098 10.0339C10.8599 9.89541 10.7072 9.8236 10.5687 9.87352C10.4302 9.92343 10.3584 10.0762 10.4083 10.2147C10.4095 10.218 10.4108 10.2214 10.4122 10.2248C10.6553 10.8592 10.6729 11.3443 10.4602 11.5576C10.2022 11.8151 9.55947 11.7346 8.74059 11.3427C7.64428 10.7735 6.64777 10.0299 5.79 9.14093C3.70202 7.05268 2.84049 5.00361 3.37335 4.47075C3.54338 4.33647 3.76439 4.28489 3.97631 4.33001C4.12312 4.34081 4.2509 4.23051 4.2617 4.08371C4.27213 3.94179 4.16927 3.81671 4.02802 3.79955C3.6574 3.73397 3.27715 3.84203 2.99643 4.09277C2.01974 5.06919 3.51276 7.6162 5.41308 9.51679C6.31343 10.4485 7.35963 11.2272 8.51054 11.8223C8.71896 11.9221 8.93375 12.008 9.15349 12.0795L7.25956 12.7976C4.73055 11.8362 2.90996 9.59409 2.48809 6.92153C2.46527 6.77609 2.32885 6.67666 2.18341 6.69949C2.03797 6.72231 1.93854 6.85872 1.96136 7.00417C2.00321 7.27073 2.05919 7.53729 2.1277 7.79799C2.74153 10.1237 4.35826 12.0558 6.53931 13.0701L3.42213 14.2496C3.40783 14.2258 3.38984 14.2044 3.36881 14.1862C2.57659 13.5501 2.07952 12.6173 1.99335 11.605L1.86967 10.1072C1.85994 9.96211 1.73439 9.85236 1.58924 9.86209C1.58648 9.86229 1.58371 9.86249 1.58098 9.86279C1.43424 9.87445 1.32471 10.0029 1.33637 10.1496C1.33641 10.1502 1.33647 10.1509 1.33654 10.1515L1.46236 11.6488C1.55606 12.7308 2.06079 13.7357 2.87274 14.457L0.649076 15.2988L1.04892 13.6578C1.08381 13.5147 0.996107 13.3705 0.852996 13.3356C0.709885 13.3007 0.565608 13.3884 0.530722 13.5315L0.0106578 15.664C-0.0243952 15.807 0.063104 15.9513 0.206115 15.9863C0.258561 15.9992 0.31364 15.9958 0.36412 15.9767L10.2269 12.2448C10.2426 12.2371 10.2575 12.2278 10.2712 12.2171C10.4846 12.1843 10.6825 12.0856 10.8371 11.9348C11.1012 11.6706 11.3286 11.126 10.9098 10.0339Z" fill="#3A3A3A"/>
<path d="M13.4253 9.34627C11.9843 8.80681 10.4268 8.65557 8.90896 8.90778L7.95653 9.06771C7.81195 9.0955 7.71729 9.23522 7.74508 9.37979C7.77193 9.51947 7.90371 9.61347 8.04449 9.59338L8.99666 9.43477C10.4222 9.19776 11.885 9.33991 13.2382 9.84688C13.2682 9.85751 13.2999 9.86284 13.3318 9.86261C13.479 9.86284 13.5985 9.74372 13.5988 9.59648C13.599 9.48502 13.5298 9.38522 13.4253 9.34627Z" fill="#3A3A3A"/>
<path d="M14.3728 5.2165C14.3095 5.08355 14.1504 5.02711 14.0175 5.09042L8.41963 7.75605C8.28672 7.81932 8.23024 7.97836 8.29352 8.11131C8.29352 8.11134 8.29355 8.11138 8.29355 8.11138C8.35682 8.24429 8.51586 8.30077 8.64881 8.23749C8.64884 8.23749 8.64884 8.23746 8.64888 8.23746L14.2467 5.57183C14.3796 5.50852 14.4361 5.34945 14.3728 5.2165Z" fill="#3A3A3A"/>
<path d="M6.47656 1.80925C6.44724 1.66497 6.30653 1.57177 6.16225 1.6011C6.01798 1.63042 5.92478 1.77113 5.9541 1.91541C5.95473 1.91861 5.95547 1.92177 5.95623 1.92494C6.29363 3.43232 6.15459 5.0073 5.55826 6.43225L5.17067 7.36229C5.11466 7.4978 5.1786 7.65311 5.31382 7.70988C5.34621 7.72351 5.38103 7.73047 5.41618 7.73041C5.52377 7.73041 5.6208 7.66577 5.66222 7.56647L6.05006 6.6375C6.68898 5.11113 6.83802 3.42399 6.47656 1.80925Z" fill="#3A3A3A"/>
<path d="M14.6649 9.59619C14.2233 9.59619 13.8652 9.95422 13.8652 10.3959C13.8652 10.8375 14.2233 11.1956 14.6649 11.1956C15.1066 11.1956 15.4646 10.8375 15.4646 10.3959C15.4646 9.95422 15.1066 9.59619 14.6649 9.59619ZM14.6649 10.6624C14.5177 10.6624 14.3984 10.5431 14.3984 10.3959C14.3984 10.2487 14.5177 10.1293 14.6649 10.1293C14.8121 10.1293 14.9315 10.2487 14.9315 10.3959C14.9315 10.5431 14.8121 10.6624 14.6649 10.6624Z" fill="#3A3A3A"/>
<path d="M8.26746 2.13232C7.8258 2.13232 7.46777 2.49035 7.46777 2.93201C7.46777 3.37367 7.8258 3.7317 8.26746 3.7317C8.70912 3.7317 9.06714 3.37367 9.06714 2.93201C9.06714 2.49035 8.70912 2.13232 8.26746 2.13232ZM8.26746 3.19858C8.12025 3.19858 8.0009 3.07922 8.0009 2.93201C8.0009 2.7848 8.12025 2.66545 8.26746 2.66545C8.41467 2.66545 8.53402 2.7848 8.53402 2.93201C8.53402 3.07922 8.41467 3.19858 8.26746 3.19858Z" fill="#3A3A3A"/>
<path d="M5.86809 1.06625C6.16252 1.06625 6.40121 0.827563 6.40121 0.533126C6.40121 0.238688 6.16252 0 5.86809 0C5.57365 0 5.33496 0.238688 5.33496 0.533126C5.33496 0.827563 5.57365 1.06625 5.86809 1.06625Z" fill="#3A3A3A"/>
<path d="M13.332 1.33252C13.1848 1.33252 13.0654 1.45187 13.0654 1.59908V1.86565C13.0654 2.01285 13.1848 2.13221 13.332 2.13221C13.4792 2.13221 13.5986 2.01285 13.5986 1.86565V1.59908C13.5986 1.45187 13.4792 1.33252 13.332 1.33252Z" fill="#3A3A3A"/>
<path d="M13.332 0C13.1848 0 13.0654 0.119353 13.0654 0.266563V0.533126C13.0654 0.680335 13.1848 0.799688 13.332 0.799688C13.4792 0.799688 13.5986 0.680335 13.5986 0.533126V0.266563C13.5986 0.119353 13.4792 0 13.332 0Z" fill="#3A3A3A"/>
<path d="M14.1318 0.799805H13.8652C13.718 0.799805 13.5986 0.919158 13.5986 1.06637C13.5986 1.21358 13.718 1.33293 13.8652 1.33293H14.1318C14.279 1.33293 14.3983 1.21358 14.3983 1.06637C14.3983 0.919158 14.279 0.799805 14.1318 0.799805Z" fill="#3A3A3A"/>
<path d="M12.7988 0.799805H12.5322C12.385 0.799805 12.2656 0.919158 12.2656 1.06637C12.2656 1.21358 12.385 1.33293 12.5322 1.33293H12.7988C12.946 1.33293 13.0653 1.21358 13.0653 1.06637C13.0653 0.919158 12.946 0.799805 12.7988 0.799805Z" fill="#3A3A3A"/>
<path d="M11.4663 2.92627H10.1279C9.98068 2.92627 9.86133 3.04562 9.86133 3.19283V4.53124C9.86133 4.67845 9.98068 4.79781 10.1279 4.79781H11.4663C11.6135 4.79781 11.7329 4.67845 11.7329 4.53124V3.19283C11.7329 3.04562 11.6135 2.92627 11.4663 2.92627ZM11.1997 4.26468H10.3945V3.45939H11.1997V4.26468Z" fill="#3A3A3A"/>
<path d="M9.5241 5.1522C9.42624 5.04774 9.26337 5.03921 9.15515 5.13287L6.48953 7.53194C6.38017 7.63043 6.37134 7.79893 6.4698 7.90832C6.5683 8.01768 6.7368 8.02651 6.84619 7.92805L9.51181 5.52898C9.61927 5.42832 9.62477 5.25966 9.5241 5.1522Z" fill="#3A3A3A"/>
<path d="M14.3984 6.13086C14.2512 6.13086 14.1318 6.25021 14.1318 6.39742V6.66398C14.1318 6.81119 14.2512 6.93055 14.3984 6.93055C14.5456 6.93055 14.665 6.81119 14.665 6.66398V6.39742C14.665 6.25021 14.5456 6.13086 14.3984 6.13086Z" fill="#3A3A3A"/>
<path d="M15.5289 6.08508L15.3404 5.89662C15.2345 5.79433 15.0658 5.79726 14.9635 5.90315C14.8637 6.00645 14.8637 6.17022 14.9635 6.27354L15.152 6.462C15.2578 6.5643 15.4266 6.56136 15.5289 6.45547C15.6287 6.35215 15.6287 6.18838 15.5289 6.08508Z" fill="#3A3A3A"/>
<path d="M15.7304 5.06494H15.4638C15.3166 5.06494 15.1973 5.1843 15.1973 5.3315C15.1973 5.47871 15.3166 5.59807 15.4638 5.59807H15.7304C15.8776 5.59807 15.997 5.47871 15.997 5.3315C15.997 5.1843 15.8776 5.06494 15.7304 5.06494Z" fill="#3A3A3A"/>
<path d="M15.5226 4.2008C15.4194 4.10104 15.2556 4.10104 15.1523 4.2008L14.9638 4.38926C14.8597 4.49338 14.8597 4.66215 14.9639 4.76624C15.0138 4.81619 15.0816 4.84428 15.1523 4.84428C15.223 4.84428 15.2907 4.81616 15.3407 4.76618L15.5292 4.57772C15.6315 4.47183 15.6285 4.30306 15.5226 4.2008Z" fill="#3A3A3A"/>
<path d="M14.3984 3.73193C14.2512 3.73193 14.1318 3.85129 14.1318 3.9985V4.26506C14.1318 4.41227 14.2512 4.53162 14.3984 4.53162C14.5456 4.53162 14.665 4.41227 14.665 4.26506V3.9985C14.665 3.85129 14.5456 3.73193 14.3984 3.73193Z" fill="#3A3A3A"/>
<path d="M13.8326 4.38878L13.6441 4.20032C13.5382 4.09806 13.3695 4.10096 13.2672 4.20685C13.1674 4.31015 13.1674 4.47392 13.2672 4.57724L13.4557 4.76571C13.5616 4.868 13.7303 4.86507 13.8326 4.75918C13.9324 4.65585 13.9324 4.49208 13.8326 4.38878Z" fill="#3A3A3A"/>
<path d="M3.18993 1.1528C3.15855 1.05637 3.07515 0.986135 2.97482 0.97154L2.19246 0.857718L1.84352 0.148927C1.76575 0.0168788 1.59565 -0.0271374 1.46361 0.0506323C1.42302 0.074523 1.3892 0.108343 1.36531 0.148927L1.01478 0.857718L0.232419 0.97154C0.086709 0.992565 -0.0143517 1.12775 0.00667349 1.27346C0.0150369 1.33147 0.0422929 1.38508 0.0842099 1.42603L0.650123 1.97781L0.516841 2.75698C0.491251 2.90195 0.588014 3.04023 0.732991 3.06582C0.791368 3.07612 0.851478 3.06669 0.903891 3.039L1.60362 2.67008L2.30335 3.03794C2.43366 3.10644 2.59483 3.05636 2.66334 2.92605C2.69063 2.87417 2.70002 2.81476 2.69013 2.75698L2.55685 1.97781L3.12303 1.42603C3.1955 1.35509 3.22142 1.2492 3.18993 1.1528ZM2.08343 1.69393C2.02066 1.75507 1.99197 1.84317 2.00666 1.92957L2.07277 2.31475L1.72757 2.13269C1.64997 2.09194 1.55727 2.09194 1.47967 2.13269L1.13313 2.31448L1.19924 1.9293C1.2142 1.84323 1.18601 1.75527 1.1238 1.69393L0.843647 1.42123L1.23043 1.36499C1.31726 1.35239 1.39233 1.29785 1.43115 1.21918L1.60362 0.86918L1.77635 1.21918C1.81514 1.29778 1.89007 1.35229 1.97681 1.36499L2.36332 1.42123L2.08343 1.69393Z" fill="#3A3A3A"/>
<path d="M15.0976 13.3611H15.0965L14.9867 13.1964C14.3709 12.2755 13.4026 11.6494 12.3101 11.4656C12.1644 11.4448 12.0294 11.5461 12.0086 11.6918C11.9885 11.8327 12.0825 11.9644 12.2221 11.9913C13.0101 12.125 13.7282 12.5253 14.2563 13.1252C13.8123 13.2051 13.424 13.4717 13.19 13.8575C12.9029 14.3716 13.087 15.0211 13.6012 15.3082C14.1154 15.5953 14.7649 15.4112 15.052 14.8971C15.1616 14.6854 15.2208 14.4512 15.225 14.2128C15.5086 14.6247 15.5313 15.1627 15.2834 15.5971C15.2083 15.7237 15.25 15.8872 15.3766 15.9623C15.5032 16.0374 15.6668 15.9957 15.7419 15.869C15.7443 15.865 15.7466 15.8609 15.7488 15.8567C16.2369 14.9849 15.9494 13.8833 15.0976 13.3611ZM14.5871 14.6369C14.4448 14.8947 14.1205 14.9883 13.8627 14.846C13.605 14.7038 13.5113 14.3795 13.6536 14.1217C13.6544 14.1203 13.6552 14.1188 13.656 14.1174C13.8133 13.8598 14.0786 13.6871 14.3778 13.6477C14.4242 13.6464 14.4701 13.6571 14.5111 13.6786C14.7361 13.8042 14.7481 14.3485 14.5871 14.6369Z" fill="#3A3A3A"/>
</svg>
