<svg width="16" height="15" viewBox="0 0 16 15" fill="none" xmlns="http://www.w3.org/2000/svg">
<path d="M4.75 5.954V6.5H5.25V5.954C5.35456 5.91665 5.44953 5.85655 5.52804 5.77804C5.60655 5.69953 5.66665 5.60456 5.704 5.5H6.25V5H5.704C5.66665 4.89544 5.60655 4.80047 5.52804 4.72196C5.44953 4.64345 5.35456 4.58335 5.25 4.546V4H4.75V4.546C4.64544 4.58335 4.55047 4.64345 4.47196 4.72196C4.39345 4.80047 4.33335 4.89544 4.296 5H3.75V5.5H4.296C4.33335 5.60456 4.39345 5.69953 4.47196 5.77804C4.55047 5.85655 4.64544 5.91665 4.75 5.954ZM5 5C5.04945 5 5.09778 5.01466 5.13889 5.04213C5.18 5.0696 5.21205 5.10865 5.23097 5.15433C5.24989 5.20001 5.25484 5.25028 5.2452 5.29877C5.23555 5.34727 5.21174 5.39181 5.17678 5.42678C5.14181 5.46174 5.09727 5.48555 5.04877 5.4952C5.00028 5.50484 4.95001 5.49989 4.90433 5.48097C4.85865 5.46205 4.8196 5.43 4.79213 5.38889C4.76466 5.34778 4.75 5.29945 4.75 5.25C4.75 5.1837 4.77634 5.12011 4.82322 5.07322C4.87011 5.02634 4.9337 5 5 5Z" fill="#3A3A3A"/>
<path d="M8.25 5.954V6.5H8.75V5.954C8.85456 5.91665 8.94953 5.85655 9.02804 5.77804C9.10655 5.69953 9.16665 5.60456 9.204 5.5H9.75V5H9.204C9.16665 4.89544 9.10655 4.80047 9.02804 4.72196C8.94953 4.64345 8.85456 4.58335 8.75 4.546V4H8.25V4.546C8.14544 4.58335 8.05047 4.64345 7.97196 4.72196C7.89345 4.80047 7.83335 4.89544 7.796 5H7.25V5.5H7.796C7.83335 5.60456 7.89345 5.69953 7.97196 5.77804C8.05047 5.85655 8.14544 5.91665 8.25 5.954ZM8.5 5C8.54945 5 8.59778 5.01466 8.63889 5.04213C8.68 5.0696 8.71205 5.10865 8.73097 5.15433C8.74989 5.20001 8.75484 5.25028 8.7452 5.29877C8.73555 5.34727 8.71174 5.39181 8.67678 5.42678C8.64181 5.46174 8.59727 5.48555 8.54877 5.4952C8.50028 5.50484 8.45001 5.49989 8.40433 5.48097C8.35865 5.46205 8.3196 5.43 8.29213 5.38889C8.26466 5.34778 8.25 5.29945 8.25 5.25C8.25 5.1837 8.27634 5.12011 8.32322 5.07322C8.37011 5.02634 8.4337 5 8.5 5Z" fill="#3A3A3A"/>
<path d="M4.75 8.704V9.25H5.25V8.704C5.35456 8.66665 5.44953 8.60655 5.52804 8.52804C5.60655 8.44953 5.66665 8.35456 5.704 8.25H6.25V7.75H5.704C5.66665 7.64544 5.60655 7.55047 5.52804 7.47196C5.44953 7.39345 5.35456 7.33335 5.25 7.296V6.75H4.75V7.296C4.64544 7.33335 4.55047 7.39345 4.47196 7.47196C4.39345 7.55047 4.33335 7.64544 4.296 7.75H3.75V8.25H4.296C4.33335 8.35456 4.39345 8.44953 4.47196 8.52804C4.55047 8.60655 4.64544 8.66665 4.75 8.704ZM5 7.75C5.04945 7.75 5.09778 7.76466 5.13889 7.79213C5.18 7.8196 5.21205 7.85865 5.23097 7.90433C5.24989 7.95001 5.25484 8.00028 5.2452 8.04877C5.23555 8.09727 5.21174 8.14181 5.17678 8.17678C5.14181 8.21174 5.09727 8.23555 5.04877 8.2452C5.00028 8.25484 4.95001 8.24989 4.90433 8.23097C4.85865 8.21205 4.8196 8.18 4.79213 8.13889C4.76466 8.09778 4.75 8.04945 4.75 8C4.75 7.9337 4.77634 7.87011 4.82322 7.82322C4.87011 7.77634 4.9337 7.75 5 7.75Z" fill="#3A3A3A"/>
<path d="M8.25 8.704V9.25H8.75V8.704C8.85456 8.66665 8.94953 8.60655 9.02804 8.52804C9.10655 8.44953 9.16665 8.35456 9.204 8.25H9.75V7.75H9.204C9.16665 7.64544 9.10655 7.55047 9.02804 7.47196C8.94953 7.39345 8.85456 7.33335 8.75 7.296V6.75H8.25V7.296C8.14544 7.33335 8.05047 7.39345 7.97196 7.47196C7.89345 7.55047 7.83335 7.64544 7.796 7.75H7.25V8.25H7.796C7.83335 8.35456 7.89345 8.44953 7.97196 8.52804C8.05047 8.60655 8.14544 8.66665 8.25 8.704ZM8.5 7.75C8.54945 7.75 8.59778 7.76466 8.63889 7.79213C8.68 7.8196 8.71205 7.85865 8.73097 7.90433C8.74989 7.95001 8.75484 8.00028 8.7452 8.04877C8.73555 8.09727 8.71174 8.14181 8.67678 8.17678C8.64181 8.21174 8.59727 8.23555 8.54877 8.2452C8.50028 8.25484 8.45001 8.24989 8.40433 8.23097C8.35865 8.21205 8.3196 8.18 8.29213 8.13889C8.26466 8.09778 8.25 8.04945 8.25 8C8.25 7.9337 8.27634 7.87011 8.32322 7.82322C8.37011 7.77634 8.4337 7.75 8.5 7.75Z" fill="#3A3A3A"/>
<path d="M2.75 15H15.5V14.5H15.25V13.75C15.25 13.6837 15.2237 13.6201 15.1768 13.5732C15.1299 13.5263 15.0663 13.5 15 13.5H14V3.25H15.25C15.3109 3.24998 15.3697 3.22772 15.4154 3.18739C15.4611 3.14707 15.4904 3.09145 15.498 3.031L15.748 1.031C15.7524 0.995832 15.7493 0.960131 15.7388 0.926266C15.7284 0.892401 15.7108 0.861145 15.6874 0.834572C15.6639 0.808 15.6351 0.786717 15.6028 0.772136C15.5705 0.757556 15.5354 0.75001 15.5 0.75H14V0.5H13.5V0.75H12C11.9646 0.75001 11.9295 0.757556 11.8972 0.772136C11.8649 0.786717 11.8361 0.808 11.8126 0.834572C11.7892 0.861145 11.7716 0.892401 11.7612 0.926266C11.7507 0.960131 11.7476 0.995832 11.752 1.031L12.002 3.031C12.0096 3.09145 12.0389 3.14707 12.0846 3.18739C12.1303 3.22772 12.1891 3.24998 12.25 3.25H13.5V13.5H12.5C12.4337 13.5 12.3701 13.5263 12.3232 13.5732C12.2763 13.6201 12.25 13.6837 12.25 13.75V14.5H11.7118L11.5025 13.2448L11.975 9.475C12.215 9.42032 12.4263 9.27908 12.5686 9.0783C12.711 8.87753 12.7742 8.63132 12.7464 8.3868C12.7185 8.14228 12.6015 7.91662 12.4176 7.75301C12.2338 7.58939 11.9961 7.49931 11.75 7.5H11.5313L11.549 7.3485C11.6286 6.67103 11.5638 5.98439 11.359 5.33375C11.1542 4.6831 10.8139 4.0832 10.3606 3.5735C9.90724 3.0638 9.35113 2.65586 8.72883 2.37651C8.10652 2.09717 7.43213 1.95274 6.75 1.95274C6.06787 1.95274 5.39348 2.09717 4.77117 2.37651C4.14887 2.65586 3.59277 3.0638 3.13944 3.5735C2.68611 4.0832 2.34584 4.6831 2.14101 5.33375C1.93617 5.98439 1.87142 6.67103 1.951 7.3485L1.96875 7.5H1.75C1.5039 7.49931 1.26619 7.58939 1.08235 7.75301C0.898516 7.91662 0.781471 8.14228 0.753614 8.3868C0.725758 8.63132 0.789046 8.87753 0.931368 9.0783C1.07369 9.27908 1.28505 9.42032 1.525 9.475L1.9975 13.2448L1.78825 14.5H0.5V15H2.75ZM12.2833 1.25H15.2168L15.0293 2.75H12.4708L12.2833 1.25ZM9.8455 13.5L10.3455 14.5H3.1545L3.6545 13.5H9.8455ZM12.75 14H14.75V14.5H12.75V14ZM10.9045 14.5L10.4045 13.5H11.0383L11.2048 14.5H10.9045ZM2.4475 7.29C2.37594 6.68251 2.43383 6.06674 2.61738 5.48323C2.80092 4.89973 3.10595 4.3617 3.5124 3.90457C3.91884 3.44743 4.41749 3.08155 4.97552 2.831C5.53354 2.58045 6.13831 2.45091 6.75 2.45091C7.3617 2.45091 7.96646 2.58045 8.52448 2.831C9.08251 3.08155 9.58116 3.44743 9.9876 3.90457C10.394 4.3617 10.6991 4.89973 10.8826 5.48323C11.0662 6.06674 11.1241 6.68251 11.0525 7.29L11.0275 7.5H10.9065C10.6644 7.50068 10.4307 7.58889 10.2485 7.74838C10.0663 7.90786 9.94795 8.12784 9.91525 8.36775L9.73125 9.75H3.76875L3.5845 8.368C3.55186 8.12805 3.43352 7.908 3.25134 7.74847C3.06915 7.58894 2.83541 7.50069 2.59325 7.5H2.47225L2.4475 7.29ZM9.5 11.25H4V10.25H9.5V11.25ZM1.75 9C1.61739 9 1.49021 8.94732 1.39645 8.85355C1.30268 8.75979 1.25 8.63261 1.25 8.5C1.25 8.36739 1.30268 8.24021 1.39645 8.14645C1.49021 8.05268 1.61739 8 1.75 8H2.59325C2.71433 8.00029 2.83121 8.04441 2.9223 8.12418C3.01338 8.20396 3.07251 8.31401 3.08875 8.434L3.50225 11.534C3.50515 11.5464 3.50908 11.5585 3.514 11.5702C3.51699 11.5833 3.52118 11.596 3.5265 11.6082C3.53485 11.6243 3.545 11.6394 3.55675 11.6532C3.56366 11.6636 3.57144 11.6733 3.58 11.6823C3.59529 11.6953 3.61207 11.7064 3.63 11.7155C3.63892 11.7216 3.64819 11.7272 3.65775 11.7323C3.68708 11.744 3.7184 11.75 3.75 11.75H9.75C9.78201 11.7498 9.81367 11.7435 9.84325 11.7312C9.85287 11.7262 9.86214 11.7205 9.871 11.7142C9.88901 11.7054 9.90582 11.6943 9.921 11.6812C9.92956 11.6723 9.93734 11.6626 9.94425 11.6523C9.956 11.6384 9.96615 11.6233 9.9745 11.6073C9.97986 11.5949 9.98405 11.5821 9.987 11.569C9.99196 11.5574 9.99589 11.5453 9.99875 11.533L10.4123 8.433C10.4287 8.31336 10.4878 8.20369 10.5786 8.12414C10.6695 8.04458 10.786 8.0005 10.9068 8H11.75C11.8826 8 12.0098 8.05268 12.1036 8.14645C12.1973 8.24021 12.25 8.36739 12.25 8.5C12.25 8.63261 12.1973 8.75979 12.1036 8.85355C12.0098 8.94732 11.8826 9 11.75 9C11.6891 9.00002 11.6303 9.02228 11.5846 9.06261C11.5389 9.10293 11.5096 9.15855 11.502 9.219L11.0293 13H2.47075L1.998 9.219C1.99045 9.15855 1.96108 9.10293 1.91541 9.06261C1.86974 9.02228 1.81092 9.00002 1.75 9ZM2.46175 13.5H3.0955L2.5955 14.5H2.2955L2.46175 13.5Z" fill="#3A3A3A"/>
</svg>
