<svg width="22" height="33" viewBox="0 0 22 33" fill="none" xmlns="http://www.w3.org/2000/svg">
<path d="M20.7232 30.0885C20.8891 29.8759 20.7843 29.6095 20.5122 29.5797C19.6023 29.48 18.8455 29.8337 18.2014 30.374C18.8158 28.8376 19.6516 27.3629 20.4078 25.9006C20.8042 25.1342 21.8815 23.5424 21.3805 22.6604C21.3059 22.5289 21.1817 22.4881 21.0653 22.5108C19.1095 21.4022 17.1323 20.2726 15.1577 19.1957C13.6437 18.3697 11.9282 17.1884 10.201 16.9103C8.88628 16.6986 7.30936 18.0618 6.35106 18.7455C4.47914 20.0813 2.43955 21.6092 0.253711 22.3517C0.0177755 22.4318 -0.0392843 22.6485 0.0239666 22.8222C0.0162694 22.8727 0.0181102 22.9261 0.0386919 22.9827C0.996323 25.6131 2.1427 28.2748 3.71661 30.5989C3.70523 30.6208 3.69084 30.6406 3.6798 30.6625C2.77387 30.1916 1.93404 29.8678 0.884044 29.7485C0.548714 29.7104 0.423719 30.1647 0.625017 30.3737C1.0328 30.7654 1.39357 31.1976 1.70698 31.6706C1.79533 31.814 2.0085 31.7188 1.97303 31.5585C1.89372 31.1998 1.78579 30.9207 1.64456 30.6494C2.34551 30.8442 2.99542 31.1444 3.6547 31.5142C3.88946 31.6457 4.12774 31.5147 4.21961 31.2844C4.76695 29.9112 5.99297 28.8896 7.35806 28.3727C6.91179 30.63 9.88608 30.9729 10.9322 28.9194C11.85 29.4559 12.434 30.0584 12.4812 31.4195C12.4846 31.5165 12.5219 31.589 12.5714 31.6477C12.5687 31.722 12.6271 31.799 12.7166 31.7736C12.725 31.771 12.7325 31.7684 12.7407 31.766C12.9014 31.8174 13.0886 31.7679 13.1822 31.6243C13.9554 31.3495 14.5822 30.9469 14.9085 30.2065C15.7448 30.7152 16.4817 31.3249 17.2038 31.9996C17.4071 32.1897 17.6798 32.1296 17.8346 31.9185C18.4169 31.1241 19.0633 30.5802 19.9391 30.3118C19.7189 30.9595 19.9582 31.5649 20.7999 31.7851C21.0343 31.8465 21.2538 31.5293 21.0492 31.3564C20.5982 31.1 20.4895 30.6775 20.7232 30.0885ZM17.4436 31.1183C16.6772 30.3845 15.8738 29.7858 14.8919 29.3143C14.6942 29.2193 14.3779 29.281 14.3366 29.5404C14.2148 30.3059 13.7834 30.7733 13.2242 31.1688C13.1191 29.6464 12.2966 28.7204 10.9361 27.9805C10.6975 27.8507 10.411 27.9676 10.3307 28.2268C9.88508 29.6659 7.37345 30.1847 8.35334 27.9497C8.49222 27.6331 8.268 27.2521 7.89167 27.3492C6.35642 27.7457 4.97427 28.6841 4.08608 29.9843C2.90138 27.6822 1.88301 25.3285 0.857104 22.9519C4.15385 22.0893 6.50735 19.1299 9.65383 17.9333C10.9297 17.4481 14.2146 19.7581 15.3956 20.3352C17.179 21.207 18.8354 22.3058 20.6468 23.1191C20.1846 24.2922 19.7097 25.4391 19.16 26.5935C18.514 27.9502 17.3842 29.5548 17.4436 31.1183Z" fill="#EA725B"/>
<path d="M17.4482 13.543C14.8446 13.4622 12.2106 13.6021 9.60964 13.7182C7.27221 13.8226 4.9254 13.6863 2.60637 14.0425C2.36257 14.08 2.25849 14.3668 2.303 14.5766C2.65657 16.2434 3.24975 17.8759 3.79324 19.4901C3.85833 19.6837 4.13794 19.6486 4.14731 19.4423C4.19015 18.4873 4.02633 17.7822 3.76781 16.8473C3.36939 15.4068 3.02921 14.7664 4.87219 14.7225C7.34985 14.6636 9.82817 14.7068 12.3095 14.6337C14.4567 14.5704 16.6116 14.5391 18.7589 14.5192C17.6201 14.5298 16.6593 17.7974 16.7503 18.7304C16.7889 19.127 17.4183 19.2862 17.4993 18.8317C17.689 17.7663 18.1517 16.8784 18.6482 15.934C18.8791 15.4948 19.4604 15.0268 19.4139 14.4608C19.3202 13.3232 18.4448 13.574 17.4482 13.543Z" fill="#EA725B"/>
<path d="M12.6583 11.9183C12.6954 11.8994 12.7332 11.8828 12.7691 11.8604C12.9749 11.7309 12.9439 11.4084 12.7011 11.341C12.6814 11.3355 12.6613 11.3333 12.6417 11.3286C12.6446 10.9734 12.6579 10.6161 12.6605 10.2512C12.6615 10.117 12.5599 9.9535 12.4172 9.93175C11.8561 9.84574 11.2597 9.92087 10.6985 9.97158C10.1016 10.0255 9.33828 10.0405 8.79178 10.3144C7.9409 10.741 8.72435 12.8973 9.19203 13.3881C9.29193 13.4929 9.45876 13.4094 9.46428 13.2753C9.48001 12.8898 9.39249 12.5192 9.31034 12.1434C9.89499 12.1527 10.481 12.1495 11.0655 12.1335C11.3227 12.1265 11.5937 12.1321 11.8596 12.1136C11.8782 12.4998 11.9635 12.865 12.2028 13.1647C12.4319 13.452 12.8589 13.1381 12.7821 12.8276C12.7065 12.5222 12.6757 12.2202 12.6583 11.9183ZM9.22366 11.6807C9.19387 11.4943 9.16961 11.307 9.1584 11.1185C9.1425 10.8521 9.03859 10.9546 9.29226 10.8901C10.1167 10.6804 11.0922 10.5723 11.9754 10.58C11.9533 10.8112 11.9205 11.0554 11.8939 11.3019C11.6175 11.3325 11.3396 11.3899 11.066 11.42C10.4492 11.4878 9.83107 11.5527 9.22366 11.6807Z" fill="#EA725B"/>
<path d="M12.4454 6.75182C12.0771 6.39072 11.5505 6.29099 11.044 6.35608C11.223 5.70935 11.0823 5.02899 10.501 4.51009C10.0581 4.11469 9.53648 4.05127 9.07532 4.21225C9.14577 3.21629 8.65448 2.11258 8.07435 1.38252C7.0026 0.0335024 5.12348 -0.443557 3.63591 0.471574C1.9693 1.49664 1.43635 6.16365 3.784 5.998C3.16973 6.98993 3.49535 8.27486 4.65445 8.81634C5.22689 9.08374 6.40473 9.22496 6.97867 8.76581C7.15453 9.00375 7.41875 9.19919 7.68748 9.30629C8.20369 9.5121 8.77898 9.39531 9.19329 9.07102C9.4309 9.49386 9.96585 9.6873 10.5405 9.48215C10.7448 9.40919 10.7018 9.13461 10.4908 9.11453C10.0186 9.06951 9.58116 9.00476 9.65612 8.41224C9.69812 8.07959 9.16434 8.02403 9.08252 8.3346C8.95334 8.82437 8.36082 8.8401 7.9619 8.73385C7.43398 8.59329 7.44217 8.2757 7.41607 7.81922C7.40469 7.62043 7.14751 7.47335 6.9959 7.6452C6.8684 7.78994 6.80264 7.9397 6.78072 8.08812C6.33813 8.49373 5.55402 8.38028 5.04567 8.14702C4.71101 7.99341 4.37049 7.73338 4.23512 7.37981C4.0273 6.83716 4.37718 6.28765 4.60726 5.81561C4.7331 5.55742 4.44244 5.31763 4.21956 5.48764C3.18897 5.37653 2.84226 4.72093 2.88878 3.6701C2.92743 2.79998 3.32401 1.71367 4.05993 1.19678C5.1469 0.433255 6.47534 1.00335 7.30095 1.84921C8.33789 2.91159 8.21307 4.07972 7.79106 5.35679C7.67644 5.70349 8.11919 5.89358 8.35881 5.68726C8.66084 5.42706 8.8526 5.1175 8.96405 4.78318C9.30456 4.64028 9.66884 4.65734 10.0351 4.97594C10.5855 5.45451 10.4832 6.22255 10.0517 6.72772C9.78831 7.03611 10.1211 7.53074 10.499 7.30736C10.8863 7.07845 11.3191 7.01001 11.7421 7.19223C12.2747 7.42198 11.9639 7.85051 11.7481 8.18618C11.5766 8.45324 11.928 8.83408 12.1985 8.63663C12.853 8.15974 13.066 7.3599 12.4454 6.75182Z" fill="#EA725B"/>
</svg>
